<?xml version="1.0" encoding="utf-8"?>
<!-- Generator: Adobe Illustrator 21.0.0, SVG Export Plug-In . SVG Version: 6.00 Build 0)  -->
<svg version="1.1" id="Layer_1" xmlns="http://www.w3.org/2000/svg" xmlns:xlink="http://www.w3.org/1999/xlink" x="0px" y="0px"
	 viewBox="0 0 256 166" style="enable-background:new 0 0 256 166;" xml:space="preserve">
<style type="text/css">
	.st0{fill:#E7ECF7;}
	.st1{fill:#DEDEDD;}
	.st2{fill:#FFFFFF;stroke:#488ECB;stroke-width:2;stroke-miterlimit:10;}
	.st3{fill:#FFFFFF;stroke:#EFD81F;stroke-width:2;stroke-miterlimit:10;}
	.st4{fill:#FFFFFF;stroke:#21759B;stroke-width:2;stroke-miterlimit:10;}
	.st5{fill:#6F80B5;}
	.st6{fill:#FFFFFF;}
	.st7{fill:#00628A;}
	.st8{fill:#E18D25;}
	.st9{fill:#E24E26;}
	.st10{fill:#F06629;}
	.st11{fill:#C54427;}
	.st12{fill:#CDCCCC;}
	.st13{fill:#488ECB;}
	.st14{fill:#F9FAFB;}
	.st15{fill:none;stroke:#0469AC;stroke-width:2;stroke-miterlimit:10;}
	.st16{fill:#FFFFFF;stroke:#543C7A;stroke-width:2;stroke-miterlimit:10;}
	.st17{fill:#543C7A;}
	.st18{fill:url(#SVGID_5_);}
	.st19{fill:#34C5EE;}
	.st20{fill:#EFD81F;}
	.st21{fill:#0469AC;}
	.st22{fill:#121B28;}
</style>
<rect class="st0" width="256" height="166"/>
<polygon class="st1" points="98.3,80.1 98.2,80.1 98.3,80.1 "/>
<rect x="100.4" y="16.3" class="st2" width="55.2" height="55.2"/>
<rect x="100.4" y="94.5" class="st3" width="55.2" height="55.2"/>
<rect x="23.8" y="94.5" class="st4" width="55.2" height="55.2"/>
<g>
	<g>
		<g>
			<defs>
				<path id="SVGID_1_" d="M45.4,123.6c6.8,0,12.4-2.9,12.4-6.5s-5.5-6.5-12.4-6.5S33,113.4,33,117S38.6,123.6,45.4,123.6
					L45.4,123.6z"/>
			</defs>
			<clipPath id="SVGID_2_">
				<use xlink:href="#SVGID_1_"  style="overflow:visible;"/>
			</clipPath>
		</g>
		<g>
			<defs>
				<path id="SVGID_3_" d="M45.4,123.6c6.8,0,12.4-2.9,12.4-6.5s-5.5-6.5-12.4-6.5S33,113.4,33,117S38.6,123.6,45.4,123.6
					L45.4,123.6z"/>
			</defs>
			<clipPath id="SVGID_4_">
				<use xlink:href="#SVGID_3_"  style="overflow:visible;"/>
			</clipPath>
		</g>
		<path class="st5" d="M45.4,123.1c6.6,0,11.9-2.7,11.9-6s-5.3-6-11.9-6c-6.6,0-11.9,2.7-11.9,6S38.8,123.1,45.4,123.1L45.4,123.1z"
			/>
		<path class="st6" d="M47.8,119l0.6-3c0.1-0.7,0-1.2-0.3-1.5c-0.3-0.3-0.9-0.5-1.8-0.5h-1l0.3-1.5c0-0.1,0-0.2-0.2-0.2c0,0,0,0,0,0
			H44c-0.1,0-0.2,0.1-0.2,0.2l-0.6,3.2c-0.1-0.4-0.2-0.7-0.4-0.9c-0.4-0.5-1.1-0.7-1.9-0.7H38c-0.1,0-0.2,0.1-0.2,0.2l-1.3,6.5
			c0,0.1,0,0.1,0,0.2c0,0,0.1,0.1,0.1,0.1h1.4c0.1,0,0.2-0.1,0.2-0.2l0.3-1.6h1.1c0.6,0,1-0.1,1.4-0.2c0.4-0.1,0.7-0.3,1-0.6
			c0.2-0.2,0.4-0.5,0.6-0.7l-0.3,1.3c0,0.1,0,0.1,0,0.2c0,0,0.1,0.1,0.1,0.1h1.4c0.1,0,0.2-0.1,0.2-0.2l0.7-3.6h1
			c0.4,0,0.5,0.1,0.6,0.1c0,0,0.1,0.1,0,0.5l-0.6,2.9c0,0.1,0,0.2,0.2,0.2c0,0,0,0,0,0h1.4C47.7,119.2,47.8,119.1,47.8,119L47.8,119
			z M41.3,116.5c-0.1,0.5-0.3,0.8-0.5,1c-0.2,0.2-0.6,0.3-1.2,0.3H39l0.5-2.3h0.8c0.6,0,0.8,0.1,0.9,0.2
			C41.3,115.8,41.3,116.1,41.3,116.5z M53.7,114.7c-0.4-0.5-1.1-0.7-1.9-0.7h-2.7c-0.1,0-0.2,0.1-0.2,0.2l-1.3,6.5
			c0,0.1,0,0.1,0,0.2c0,0,0.1,0.1,0.1,0.1h1.4c0.1,0,0.2-0.1,0.2-0.2l0.3-1.6h1.1c0.6,0,1-0.1,1.4-0.2c0.4-0.1,0.7-0.3,1-0.6
			c0.3-0.2,0.5-0.5,0.6-0.8c0.2-0.3,0.3-0.6,0.3-0.9C54.3,115.8,54.2,115.2,53.7,114.7L53.7,114.7z M52.4,116.5
			c-0.1,0.5-0.3,0.8-0.5,1c-0.2,0.2-0.6,0.3-1.2,0.3h-0.6l0.5-2.3h0.8c0.6,0,0.8,0.1,0.9,0.2C52.4,115.8,52.4,116.1,52.4,116.5
			L52.4,116.5z"/>
		<path d="M40.2,115.2c0.5,0,0.9,0.1,1.1,0.3c0.2,0.2,0.2,0.5,0.1,1c-0.1,0.5-0.3,0.9-0.6,1.1c-0.3,0.2-0.7,0.3-1.3,0.3h-0.9
			l0.5-2.7H40.2L40.2,115.2z M36.8,120.7h1.4l0.3-1.7h1.2c0.5,0,1-0.1,1.3-0.2c0.3-0.1,0.7-0.3,0.9-0.6c0.2-0.2,0.4-0.5,0.6-0.7
			c0.1-0.3,0.3-0.6,0.3-0.9c0.2-0.8,0-1.4-0.3-1.8c-0.4-0.4-1-0.6-1.8-0.6H38L36.8,120.7z M44,112.4h1.4l-0.3,1.7h1.3
			c0.8,0,1.3,0.1,1.6,0.4s0.4,0.7,0.3,1.3l-0.6,3h-1.4l0.6-2.9c0.1-0.3,0-0.6-0.1-0.7c-0.1-0.1-0.3-0.2-0.7-0.2h-1.1l-0.7,3.7h-1.4
			L44,112.4z M51.3,115.2c0.5,0,0.9,0.1,1.1,0.3c0.2,0.2,0.2,0.5,0.1,1c-0.1,0.5-0.3,0.9-0.6,1.1c-0.3,0.2-0.7,0.3-1.3,0.3h-0.9
			l0.5-2.7H51.3z M47.9,120.7h1.4l0.3-1.7h1.2c0.5,0,1-0.1,1.3-0.2c0.3-0.1,0.7-0.3,0.9-0.6c0.2-0.2,0.4-0.5,0.6-0.7
			c0.1-0.3,0.3-0.6,0.3-0.9c0.2-0.8,0-1.4-0.3-1.8c-0.4-0.4-1-0.6-1.8-0.6h-2.7L47.9,120.7L47.9,120.7z"/>
	</g>
	<g>
		<path class="st7" d="M29,131.6h1.5v-5.9l2.3,5.1c0.3,0.6,0.6,0.8,1.4,0.8c0.7,0,1.1-0.2,1.4-0.8l2.3-5.1v5.9h1.5v-5.9
			c0-0.6-0.2-0.8-0.7-1c-1.1-0.4-1.9,0-2.2,0.7l-2.3,5l-2.2-5c-0.3-0.8-1.1-1.1-2.2-0.7c-0.5,0.1-0.7,0.4-0.7,1L29,131.6L29,131.6z
			 M40.5,126.9H42v3.2c0,0.2,0.1,0.6,0.9,0.6c0.4,0,3.2,0,3.2,0v-3.8h1.5c0,0,0,5.2,0,5.3c0,1.3-1.6,1.6-2.3,1.6h-4.7v-1
			c0,0,4.7,0,4.7,0c1-0.1,0.8-0.6,0.8-0.7v-0.4h-3.2c-1.5,0-2.4-0.7-2.4-1.4C40.5,130.1,40.5,126.9,40.5,126.9z"/>
		<path class="st8" d="M48.7,131.6H53c0.5,0,1-0.1,1.4-0.3c0.6-0.3,1-0.7,1-1.2V129c0-0.4-0.4-0.8-1.1-1.1c-0.4-0.1-0.8-0.2-1.3-0.2
			h-1.8c-0.6,0-0.9-0.2-1-0.6c0,0,0-0.1,0-0.1v-0.7c0,0,0-0.1,0-0.1c0.1-0.3,0.2-0.4,0.8-0.4l0.1,0h4.2v-1h-4.2
			c-0.6,0-0.9,0-1.2,0.1c-0.9,0.3-1.3,0.7-1.3,1.5v0.9c0,0.7,0.8,1.2,2,1.4c0.1,0,0.3,0,0.4,0h1.5c0.1,0,0.1,0,0.2,0
			c0.5,0,0.7,0.1,0.8,0.3c0.1,0.1,0.1,0.2,0.1,0.3v0.9c0,0.1-0.1,0.2-0.2,0.4c-0.1,0.1-0.3,0.2-0.6,0.2l-0.2,0h-4.1V131.6z
			 M64.6,129.9c0,1,0.8,1.6,2.3,1.7c0.1,0,0.3,0,0.4,0h3.9v-1h-3.9c-0.9,0-1.2-0.2-1.2-0.7v-5.1h-1.5L64.6,129.9L64.6,129.9z
			 M56.3,130v-3.5c0-0.9,0.6-1.4,1.9-1.6c0.1,0,0.3,0,0.4,0h2.8c0.1,0,0.3,0,0.4,0c1.2,0.2,1.9,0.7,1.9,1.6v3.5
			c0,0.7-0.3,1.1-0.9,1.4l1.5,1.3h-1.7l-1.2-1.1l-1.2,0.1h-1.6c-0.3,0-0.6,0-0.9-0.1C56.7,131.3,56.3,130.8,56.3,130z M57.9,129.9
			c0,0,0,0.1,0,0.2c0.1,0.4,0.5,0.6,1.1,0.6h1.3l-1.2-1.1h1.7l1.1,1c0.2-0.1,0.3-0.3,0.4-0.5c0,0,0-0.1,0-0.1v-3.4c0,0,0-0.1,0-0.1
			c-0.1-0.4-0.5-0.6-1-0.6H59c-0.7,0-1.1,0.3-1.1,0.7L57.9,129.9L57.9,129.9z"/>
		<path class="st7" d="M72.5,123.1c-0.9,0-1.6,0.1-2.2,0.3c-0.2,0.1-0.4,0.1-0.5,0.3c0.1,0.1,0.1,0.2,0.2,0.4
			c0.1,0.2,0.4,0.5,0.6,0.7c0.2,0.2,0.5,0.4,0.7,0.5c0.4,0.3,0.9,0.4,1.4,0.7c0.3,0.2,0.5,0.4,0.8,0.5c0.1,0.1,0.2,0.2,0.4,0.3v0
			c-0.1-0.1-0.1-0.3-0.2-0.4l-0.3-0.3c-0.3-0.4-0.7-0.8-1.2-1.1c-0.4-0.3-1.1-0.6-1.3-1l0,0c0.3,0,0.5-0.1,0.8-0.2
			c0.4-0.1,0.7-0.1,1.1-0.2l0.5-0.2v-0.1c-0.2-0.2-0.3-0.5-0.6-0.7c-0.6-0.5-1.2-1-1.9-1.4c-0.4-0.2-0.8-0.4-1.2-0.6
			c-0.1-0.1-0.4-0.1-0.4-0.2c-0.2-0.3-0.3-0.6-0.5-0.9c-0.3-0.6-0.6-1.3-0.9-2c-0.2-0.5-0.3-0.9-0.6-1.3c-1.2-1.9-2.4-3.1-4.4-4.3
			c-0.4-0.2-0.9-0.3-1.5-0.5l-0.9-0.1c-0.2-0.1-0.4-0.3-0.5-0.4c-0.7-0.4-2.3-1.3-2.8-0.1c-0.3,0.7,0.5,1.5,0.7,1.8
			c0.2,0.3,0.4,0.6,0.6,0.9c0.1,0.2,0.1,0.4,0.2,0.6c0.2,0.5,0.4,1.1,0.6,1.5c0.1,0.2,0.3,0.5,0.4,0.7c0.1,0.1,0.3,0.2,0.3,0.4
			c-0.2,0.2-0.2,0.6-0.3,0.9c-0.4,1.3-0.3,2.9,0.3,3.8c0.2,0.3,0.6,0.9,1.2,0.7c0.5-0.2,0.4-0.9,0.5-1.4c0-0.1,0-0.2,0.1-0.3v0
			l0.5,0.9c0.3,0.6,1,1.1,1.5,1.5c0.3,0.2,0.5,0.6,0.8,0.7v0h0c-0.1-0.1-0.2-0.1-0.3-0.2c-0.2-0.2-0.4-0.4-0.6-0.7
			c-0.5-0.6-0.9-1.3-1.3-2.1c-0.2-0.3-0.3-0.7-0.5-1.1c-0.1-0.1-0.1-0.3-0.2-0.4c-0.2,0.3-0.4,0.5-0.5,0.8c-0.2,0.5-0.2,1.1-0.3,1.7
			l-0.1,0c-0.4-0.1-0.5-0.5-0.6-0.8c-0.3-0.8-0.4-2.1-0.1-3c0.1-0.2,0.4-1,0.3-1.2c-0.1-0.2-0.3-0.3-0.4-0.5
			c-0.2-0.2-0.3-0.5-0.4-0.7c-0.3-0.6-0.4-1.3-0.7-2c-0.1-0.3-0.4-0.6-0.6-0.9c-0.2-0.3-0.5-0.5-0.6-0.9c-0.1-0.1-0.1-0.3-0.1-0.5
			c0-0.1,0.1-0.1,0.2-0.2c0.2-0.1,0.6,0,0.7,0.1c0.4,0.2,0.8,0.3,1.1,0.6c0.2,0.1,0.3,0.3,0.5,0.4h0.2c0.4,0.1,0.8,0,1.1,0.1
			c0.6,0.2,1.1,0.5,1.6,0.8c1.5,0.9,2.7,2.3,3.6,3.9c0.1,0.3,0.2,0.5,0.3,0.8c0.2,0.6,0.5,1.1,0.8,1.7c0.2,0.5,0.5,1.1,0.8,1.5
			c0.2,0.2,0.9,0.4,1.2,0.5c0.2,0.1,0.6,0.2,0.8,0.3c0.4,0.2,0.8,0.5,1.1,0.8C71.9,122.6,72.5,122.9,72.5,123.1z M60.9,113.3
			c-0.2,0-0.3,0-0.5,0.1v0h0c0.1,0.2,0.3,0.3,0.4,0.5l0.3,0.5l0,0c0.2-0.1,0.2-0.3,0.2-0.6c-0.1-0.1-0.1-0.2-0.1-0.2
			C61.1,113.4,61,113.3,60.9,113.3z"/>
	</g>
</g>
<rect x="23.8" y="16.3" class="st2" width="55.2" height="55.2"/>
<g>
	<g>
		<polygon class="st9" points="105.5,54.5 103.4,30.8 126.6,30.8 124.5,54.5 115,57.1 		"/>
		<polygon class="st10" points="115,55.1 122.7,52.9 124.5,32.7 115,32.7 		"/>
		<path class="st6" d="M115,41.5v2.9h3.6l-0.3,3.8L115,49v3l6-1.7l0-0.5l0.7-7.7l0.1-0.8H121L115,41.5L115,41.5z M115,35.6v2.9h7
			l0.1-0.7l0.1-1.5l0.1-0.8H115L115,35.6z"/>
		<path class="st11" d="M115,38.5L115,38.5h-4.1l0.3,3h3.8h0V38.5L115,38.5z M115,30.8h-11.6l2.1,23.7l9.5,2.6l0,0v-5l0,0l0,0
			l-6-1.7l-0.4-4.6h2.9l0.2,2.3L115,49l0,0l0,0l0,0v-4.6h-6.5l-0.7-8l-0.1-0.8h7.3h0V30.8L115,30.8z"/>
		<path class="st12" d="M111.6,45.8h-2.9l0.4,4.6l6,1.7l0,0l0,0l0,0v-3l0,0l-3.2-0.9L111.6,45.8L111.6,45.8z M115,35.6h-7.3l0.1,0.8
			l0.7,8h6.5h0v-2.9h-3.8l-0.3-3h4.1h0V35.6L115,35.6z"/>
	</g>
	<g>
		<path class="st13" d="M130,31l2.1,23.3l9.2,2.6l9.2-2.6l2.1-23.3H130z"/>
		<path class="st14" d="M148.2,38.6l-0.3,2.9l-0.8,8.8l-5.9,1.6l0,0l-5.9-1.6l-0.4-4.6h2.9l0.2,2.4l3.2,0.9l0,0l3.2-0.9l0.4-4l-10,0
			l-0.3-2.7l10.6-0.1l0.2-2.9l-11,0l-0.2-2.7h14.3L148.2,38.6z"/>
	</g>
</g>
<rect x="177" y="94.5" class="st15" width="55.2" height="55.2"/>
<g>
	<rect x="177" y="16.3" class="st16" width="55.2" height="55.2"/>
</g>
<g>
	<path class="st17" d="M223.5,21.3h-37.8c-2.1,0-3.8,1.7-3.8,3.8v37.8c0,2.1,1.7,3.8,3.8,3.8h37.8c2.1,0,3.8-1.7,3.8-3.8V25
		C227.3,23,225.6,21.3,223.5,21.3z M215.6,53.1L215.6,53.1c-0.4,0.9-1,1.7-1.7,2.3c-0.8,0.6-1.8,1.2-3,1.5c-1.2,0.4-2.7,0.6-4.4,0.6
		h-12.1V31.1h12.8c2.4,0,4.3,0.5,5.7,1.6c1.4,1.1,2.1,2.7,2.1,4.9c0,1.3-0.3,2.5-1,3.4c-0.6,0.9-1.6,1.7-2.8,2.2v0.1
		c1.6,0.3,2.9,1.1,3.7,2.3c0.8,1.2,1.2,2.7,1.2,4.5C216.1,51.2,215.9,52.1,215.6,53.1L215.6,53.1z"/>
	<path class="st17" d="M209.7,46.2c-0.8-0.7-1.9-1.1-3.3-1.1h-8.2v8.2h8.2c1.4,0,2.5-0.4,3.3-1.1c0.8-0.7,1.2-1.8,1.2-3.1
		C210.9,47.9,210.5,46.9,209.7,46.2L209.7,46.2z M208.6,40.8L208.6,40.8c0.8-0.6,1.1-1.5,1.1-2.7c0-1.3-0.3-2.3-1-2.8
		c-0.7-0.5-1.6-0.8-2.9-0.8h-7.6v7.3h7.6C206.9,41.8,207.9,41.5,208.6,40.8z"/>
</g>
<g>
	
		<radialGradient id="SVGID_5_" cx="387.7041" cy="-150.5607" r="1.732463e-02" gradientTransform="matrix(2291.6716 0 0 2218.7549 -888448.0625 334087.0625)" gradientUnits="userSpaceOnUse">
		<stop  offset="0" style="stop-color:#35374E;stop-opacity:0.98"/>
		<stop  offset="1" style="stop-color:#131124"/>
	</radialGradient>
	<path class="st18" d="M25.3,18.4h52.2v50.8H25.3V18.4z"/>
	<path class="st19" d="M25.3,18.4h52.2v50.8H25.3V18.4z M22.9,71.6h57V16.1h-57V71.6z M61.3,38.8c-1.9,0-2.5,0.9-2.5,1.8
		c0,0.9,0.4,1.5,2.9,2.8c3.8,1.8,4.9,3.6,4.9,6.1c0,3.8-2.9,5.8-6.8,5.8c-2.1,0-3.8-0.4-4.9-1c-0.1,0-0.2-0.2-0.2-0.4v-3.5
		c0-0.2,0.1-0.3,0.3-0.2c1.5,1,3.2,1.4,4.8,1.4c1.9,0,2.7-0.8,2.7-1.9c0-0.9-0.6-1.6-2.9-2.8c-3.4-1.6-4.8-3.3-4.8-6
		c0-3.1,2.4-5.6,6.6-5.6c2,0,3.5,0.3,4.3,0.7c0.2,0.1,0.2,0.3,0.2,0.5v3.3c0,0.2-0.1,0.3-0.4,0.2C64.4,39.2,62.9,38.8,61.3,38.8
		L61.3,38.8z M40.9,41.6c0.6,0,1,0,1.9,0c2.8,0,5.4-1,5.4-4.7c0-3-1.9-4.6-5-4.6c-0.9,0-1.9,0-2.3,0L40.9,41.6L40.9,41.6z
		 M36.7,29.1c0-0.1,0.3-0.3,0.5-0.3c1.5,0,3.8-0.1,6.1-0.1c6.6,0,9.2,3.6,9.2,8.2c0,6-4.4,8.6-9.7,8.6c-0.9,0-1.2,0-1.9,0v9.1
		c0,0.2,0,0.3-0.3,0.3H37c-0.2,0-0.3,0-0.3-0.3L36.7,29.1L36.7,29.1z"/>
</g>
<g>
	<rect x="104.4" y="98.5" class="st20" width="47.1" height="47.1"/>
	<path d="M143.3,135.1c-0.5-1.9-4.4-2.3-7.1-4.3c-2.7-1.8-3.4-6.2-1.1-8.8c0.8-0.9,2-1.6,3.4-2l1.4-0.2c2.7-0.1,4.3,0.6,5.6,2
		c0.4,0.4,0.6,0.7,1.2,1.5c-1.4,0.9-1.4,0.9-3.4,2.2c-0.4-0.9-1.2-1.5-1.9-1.8c-1.2-0.4-2.7,0-3,1.3c-0.1,0.4-0.1,0.7,0.1,1.4
		c0.5,1.1,2.1,1.6,3.5,2.2c4.2,1.7,5.6,3.5,5.9,5.6l-0.1-0.1c0.3,1.9-0.1,3.1-0.1,3.2c-1.5,5.2-10.1,5.4-13.5,2
		c-0.7-0.8-1.2-1.2-1.6-2.2l3.6-2.1c1,1.5,1.9,2.3,3.4,2.6C141.6,138.1,143.8,137.4,143.3,135.1z M120.4,135.8c0,0,0.1,0.2,0.2,0.4
		c0.5,0.8,0.9,1.3,1.6,1.7c0.8,0.2,2.4,0.4,3.1-0.9c0.4-0.7,0.3-2.9,0.3-5.3c0-3.8,0-7.6,0-11.4h4.4l0,0.1c0,4.1,0,8.1,0,12.1
		c0,2.5,0.2,4.7-0.8,6.6c-0.7,1.4-2,2.3-3.6,2.8c-2.4,0.5-4.6,0.2-6.3-0.8c-1.1-0.7-2-1.7-2.6-3L120.4,135.8z"/>
</g>
<g>
	<path class="st21" d="M192.2,107.6c-2.5,3.6-2.2,8.3-0.3,12.2l0.1,0.3l0.1,0.2l0.1,0.1l0.1,0.2c0.1,0.1,0.1,0.2,0.2,0.3l0.1,0.2
		c0.1,0.1,0.1,0.2,0.2,0.3l0.1,0.1c0.1,0.2,0.2,0.3,0.3,0.4l0,0l0.1,0.1c0.1,0.1,0.2,0.3,0.3,0.4l0.1,0.1c0.1,0.1,0.2,0.2,0.3,0.3
		l0.1,0.1c0.1,0.1,0.2,0.3,0.4,0.4l0,0l0,0c0.1,0.1,0.2,0.3,0.4,0.4l0.1,0.1c0.1,0.1,0.2,0.2,0.3,0.3l0.1,0.1
		c0.1,0.1,0.3,0.2,0.4,0.4l0,0l0.1,0.1c0.1,0.1,0.2,0.2,0.4,0.3l0.2,0.1c0.1,0.1,0.2,0.2,0.3,0.2l0.2,0.1c0.1,0.1,0.2,0.2,0.3,0.2
		l0.1,0.1l0,0c0.1,0.1,0.2,0.1,0.3,0.2l0.1,0.1c0.2,0.1,0.3,0.2,0.5,0.3l0.1,0.1c0.1,0.1,0.3,0.1,0.4,0.2l0.2,0.1l0.3,0.1l0.1,0
		l0.1,0.1c0.1,0.1,0.3,0.1,0.4,0.2l0.1,0c0.2,0.1,0.3,0.1,0.5,0.2l0.1,0c0.2,0.1,0.3,0.1,0.5,0.2l0.1,0c0.2,0.1,0.4,0.1,0.5,0.2
		l0.1,0c0.2,0.1,0.4,0.1,0.6,0.2c12.2,2.2,15.8-7.3,15.8-7.3c-3,3.9-8.3,4.9-13.3,3.8c-0.2,0-0.4-0.1-0.6-0.2l-0.1,0
		c-0.2-0.1-0.4-0.1-0.5-0.2l-0.1,0c-0.2-0.1-0.3-0.1-0.5-0.2l-0.1-0.1c-0.2-0.1-0.3-0.1-0.5-0.2l-0.1,0c-0.1-0.1-0.3-0.1-0.4-0.2
		l-0.1-0.1c-0.1-0.1-0.2-0.1-0.3-0.2l-0.2-0.1c-0.1-0.1-0.3-0.1-0.4-0.2l-0.1-0.1c-0.2-0.1-0.3-0.2-0.5-0.3l-0.1-0.1
		c-0.1-0.1-0.2-0.2-0.4-0.2l-0.1-0.1c-0.1-0.1-0.2-0.2-0.4-0.3l-0.2-0.1c-0.1-0.1-0.2-0.2-0.3-0.2l-0.1-0.1
		c-0.1-0.1-0.3-0.2-0.4-0.3l0,0c-0.1-0.1-0.3-0.2-0.4-0.4l-0.1-0.1c-0.1-0.1-0.2-0.2-0.3-0.3l-0.1-0.1c-0.1-0.1-0.2-0.3-0.4-0.4l0,0
		c-0.1-0.1-0.2-0.3-0.4-0.4l-0.1-0.1c-0.1-0.1-0.2-0.2-0.3-0.3l-0.1-0.1c-0.1-0.1-0.2-0.3-0.3-0.4c-2.8-3.8-3.8-9-1.6-13.3
		 M200,104.5c-1.8,2.6-1.7,6.1-0.3,8.9c0.2,0.5,0.5,0.9,0.8,1.3c0.3,0.4,0.6,0.9,0.9,1.2c0.1,0.1,0.3,0.3,0.4,0.4l0.1,0.1
		c0.1,0.1,0.3,0.3,0.4,0.4l0,0l0,0c0.2,0.1,0.3,0.3,0.5,0.4l0.1,0.1c0.2,0.1,0.3,0.3,0.5,0.4l0,0l0.2,0.2l0.1,0.1
		c0.1,0.1,0.3,0.2,0.4,0.2l0.1,0c0.1,0.1,0.2,0.1,0.3,0.2l0.1,0.1l0.2,0.1l0,0c0.2,0.1,0.3,0.2,0.5,0.2l0.1,0
		c0.1,0.1,0.3,0.1,0.4,0.2l0.2,0.1c0.1,0,0.2,0.1,0.4,0.1l0.2,0.1c0.2,0.1,0.3,0.1,0.5,0.2c9.4,1.6,11.6-5.7,11.6-5.7
		c-2,2.8-5.8,4.2-9.8,3.1c-0.2,0-0.4-0.1-0.5-0.2l-0.2-0.1c-0.1,0-0.2-0.1-0.4-0.1l-0.2-0.1c-0.1-0.1-0.3-0.1-0.4-0.2l-0.1,0
		c-0.2-0.1-0.3-0.1-0.5-0.2l-0.2-0.1l-0.1-0.1c-0.1-0.1-0.2-0.1-0.3-0.2l-0.1,0c-0.1-0.1-0.3-0.2-0.4-0.2l-0.1-0.1l-0.2-0.2
		c-0.2-0.1-0.3-0.2-0.5-0.4l-0.1-0.1c-1.8-1.4-3.2-3.3-3.8-5.5c-0.7-2.3-0.5-4.8,0.7-6.8 M206.6,102.2c-1.1,1.6-1.2,3.6-0.4,5.3
		c0.8,1.9,2.4,3.3,4.3,4l0.2,0.1l0.1,0c0.1,0,0.2,0.1,0.3,0.1c5.2,1,6.6-2.7,7-3.2c-1.2,1.8-3.3,2.2-5.9,1.6c-0.2,0-0.4-0.1-0.6-0.2
		c-0.2-0.1-0.5-0.2-0.7-0.3c-0.5-0.2-0.9-0.5-1.3-0.8c-2.3-1.7-3.7-5-2.2-7.7"/>
	<path class="st22" d="M205.4,133.6H204c-0.1,0-0.2,0.1-0.2,0.1l-0.5,2.4l-0.5,2.4c0,0.1-0.1,0.1-0.2,0.1h-1c-1,0-0.9-0.7-0.7-1.7
		l0,0l0-0.1l0,0l0-0.2l0-0.3l0.1-0.3l0.2-1.1l0.2-1.1c0-0.1,0-0.1-0.1-0.1h-1.5c-0.1,0-0.2,0.1-0.2,0.1l-0.3,1.5l-0.3,1.5l0,0l0,0.1
		c-0.4,1.7-0.3,3.3,1.7,3.3l0.1,0h3.1c0.1,0,0.2-0.1,0.2-0.1l0.7-3.2l0.7-3.2C205.5,133.7,205.5,133.6,205.4,133.6z M189.9,133.6
		h-1.6c-0.1,0-0.2,0.1-0.2,0.1l-0.2,0.7l-0.2,0.7c0,0.1,0,0.1,0.1,0.1h1.6c0.1,0,0.2-0.1,0.2-0.1l0.1-0.7l0.1-0.7
		C190,133.7,190,133.6,189.9,133.6z M189.4,135.7h-1.6c-0.1,0-0.2,0.1-0.2,0.1l-0.2,1l-0.2,1l-0.1,0.3l-0.2,1l-0.2,1
		c0,0.1-0.1,0.2-0.1,0.3c0,0-0.3,0.9-0.8,0.9l-0.1,0l-0.4,0h0c-0.1,0-0.2,0.1-0.2,0.1l-0.2,0.7l-0.2,0.7c0,0.1,0,0.1,0.1,0.1
		c0.3,0,0.9,0,1.3,0c1.3,0,1.9-0.7,2.3-2.7l0.5-2.3l0.5-2.2C189.5,135.8,189.5,135.7,189.4,135.7z M219,135.2l-0.1-0.3l-0.1-0.3
		l0-0.1c-0.1-0.5-0.5-0.8-1.3-0.8l-1.3,0l-1.2,0h-1.3c-0.1,0-0.2,0.1-0.2,0.1l-0.1,0.3l-0.1,0.3l0,0.1l-0.6,2.8l-0.6,2.7
		c0,0.1,0,0.2,0,0.2c0,0,0.2,0.1,0.2,0.1h1.2c0.1,0,0.2,0,0.2,0c0,0,0.1-0.2,0.1-0.3l0.2-1.1l0.2-1.1l0,0l0-0.1l0.3-1.2l0.2-1.1
		c0-0.1,0.1-0.1,0.2-0.1l3.8,0C218.9,135.3,219,135.2,219,135.2z M223.9,132.7l-0.3,0h-1.2c-0.1,0-0.2,0.1-0.2,0.1l-2.7,3.9
		c0,0.1-0.1,0.1-0.1,0l-0.2-0.9c0-0.1-0.1-0.1-0.2-0.1h-1.7c-0.1,0-0.1,0.1-0.1,0.1l0.8,2.7c0,0.1,0,0.2,0,0.3l-0.3,1.3
		c0,0.1,0,0.1,0.1,0.1h1.7c0.1,0,0.2-0.1,0.2-0.1l0.3-1.3c0-0.1,0.1-0.2,0.1-0.3l4.4-5.8c0-0.1,0-0.1-0.1-0.1L223.9,132.7z
		 M210.1,136.1L210.1,136.1c0,0.1-0.1,0.2-0.2,0.2h-2.2c-0.1,0-0.1-0.1-0.1-0.1l0,0l0,0l0,0l0,0c0.2-0.6,0.6-0.9,1.4-0.9
		C210,135.1,210.2,135.6,210.1,136.1z M209.5,133.5c-2.8,0-3.5,1.7-3.9,3.4c-0.4,1.8-0.3,3.4,2.6,3.4h0.4l0.1,0h0l0.4,0h0
		c0.8,0,1.5,0,1.9,0c0.1,0,0.2-0.1,0.2-0.1l0.1-0.6l0-0.1l0.1-0.7c0-0.1,0-0.1-0.1-0.1h-2.6c-1,0-1.4-0.3-1.2-1.1h4.2l0,0l0,0
		c0.1,0,0.1,0,0.2-0.1l0,0l0,0C212.3,135.1,212.1,133.5,209.5,133.5z M196.1,136.1l0,0.1v0l-0.3,1.1l-0.3,1.1c0,0.1-0.1,0.1-0.2,0.1
		h-1.7c-1.3,0-1.6-1-1.3-2.5c0.3-1.5,0.9-2.4,2.2-2.5C196.2,133.5,196.6,134.7,196.1,136.1z M197.3,138.5c0,0,0.8-1.9,1-3
		c0.2-1.5-0.5-3.6-3.4-3.6c-2.9,0-4.1,2.1-4.6,4.3c-0.5,2.2,0.1,4.2,3,4.2l2.2,0l2.1,0c0.1,0,0.2-0.1,0.2-0.1l0.4-1.4
		c0-0.1,0-0.1-0.1-0.1l-0.3,0l-0.3,0C197.3,138.6,197.3,138.6,197.3,138.5L197.3,138.5z M211.4,137.2
		C211.4,137.3,211.4,137.3,211.4,137.2c-0.1,0.1-0.2,0.1-0.2,0C211.2,137.2,211.3,137.1,211.4,137.2
		C211.4,137.1,211.4,137.2,211.4,137.2z"/>
</g>
</svg>
